<!-- Generated by IcoMoon.io -->
<svg version="1.1" xmlns="http://www.w3.org/2000/svg" width="1715" height="2000" viewBox="0 0 1715 2000">
<title>alert</title>
<path d="M779.699 1195.5c0 37 29.9 60.9 76.1 60.9 16.6 0 33.801-4.699 47-13 18-11.199 28-28.199 28-47.9 0-59.801 3.6-134.199 7.1-206.1 3.5-72.301 7.1-147.1 7.1-207.6 0-23.6-9.9-44.301-27.801-58.5-16-12.6-37.699-19.6-61.4-19.6-24.801 0-46.4 6.699-62.6 19.6-17.801 14.1-27.6 34.801-27.6 58.5 0 60.6 3.6 135.301 7.1 207.6 3.4 72 7 146.301 7 206.1v0z"></path>
<path d="M856.699 1283.301c-25.699 0-49.6 9.9-67.301 27.9-17.4 17.699-27 41.199-27 66.301 0 52 42.301 94.301 94.301 94.301 50.5 0 93.199-43.199 93.199-94.301s-42.699-94.199-93.199-94.199v0z"></path>
<path d="M1685 1463.6l-686.9-1139.4c-30-49.801-84.801-80.699-142.801-80.699-58.1 0-112.9 30.9-142.801 80.699l-687.199 1139.4c-31 51.4-31.9 115.9-2.4 168.199s85.199 84.801 145.199 84.801h1374c60 0 115.699-32.5 145.199-84.801 29.6-52.4 28.699-116.801-2.301-168.199v0zM1564 1562c-4.4 7.9-12.801 12.699-21.9 12.699h-1374c-9 0-17.4-4.9-21.9-12.699-4.4-7.9-4.301-17.5 0.301-25.301l687-1139.4c4.5-7.5 12.699-12.1 21.4-12.1s17 4.6 21.4 12.1l687 1139.4c5 7.699 5.1 17.5 0.699 25.301v0z"></path>
</svg>
