<!-- Generated by IcoMoon.io -->
<svg version="1.1" xmlns="http://www.w3.org/2000/svg" width="1963" height="2000" viewBox="0 0 1963 2000">
<title>archive</title>
<path d="M1407.9 387.9h-824c-33.1 0-60 26.9-60 60s26.9 60 60 60h824c33.1 0 60-26.9 60-60s-26.9-60-60-60z"></path>
<path d="M1407.9 635.9h-824c-33.1 0-60 26.9-60 60s26.9 60 60 60h824c33.1 0 60-26.9 60-60s-26.9-60-60-60z"></path>
<path d="M1407.9 883.9h-824c-33.1 0-60 26.9-60 60s26.9 60 60 60h824c33.1 0 60-26.9 60-60s-26.9-60-60-60z"></path>
<path d="M1896.301 1189.1c-10.801-32.5-38.699-51.5-69.4-51.5-13.801 0-30.199 0-48.301 0l-88.801-889.6c-0.4-9.6-2.5-32.699-13.1-56.5-20.199-45.5-60.6-71.6-110.801-71.6h-1140c-50.199 0-90.6 26.1-110.801 71.6-10.6 23.9-12.699 46.9-13.1 56.5l-89 889.5c-25.6 0-43.199 0-47.199 0-54.801 0-85.301 54.9-72.5 111.5 19.6 86.6 118.4 535.5 121 546.801 10.301 45.6 52.699 76 93.801 76 45.199 0 1326.9 0 1375 0 39.699 0 83.4-29.301 93.5-74 19.6-86.6 118.6-536.1 121.199-547.699 4.6-20 5.1-41.4-1.5-61zM1484 1137.5c-71.6 0-136.801 56.9-161 130.5-9.4 28.301-17.199 58.699-31.6 84.5-28.5 51.1-79.4 85.301-133.801 85.301-97.699 0-195.301 0-293 0-16.301 0-33 1-49.199-1.301-59.4-8.301-109.801-56.199-130.301-118.1-10-30.6-18.5-62.801-34.6-90.199-31.1-53.199-85.4-90.6-143.1-90.6-39.9 0-101.1 0-160.9 0h-13l88-879.699c0.301-2.5 0.4-3.199 0.301-5.5 0.199-4.1 1.6-9.5 2.9-12.4 0.301 0 0.699 0 1 0h1140c0.4 0 0.699 0 1 0 1.4 3 2.699 8.301 2.9 12.4-0.1 2.301 0.1 3 0.301 5.5l88 879.6h-13.199c-79.6-0.1-151.9-0.1-160.699 0z"></path>
</svg>
