<!-- Generated by IcoMoon.io -->
<svg version="1.1" xmlns="http://www.w3.org/2000/svg" width="1855" height="2000" viewBox="0 0 1855 2000">
<title>book</title>
<path d="M258.199 1738.5c-33.1 0-60-26.9-60-60v-1382.199c0-94.9 77.199-172.1 172.1-172.1h1085.6c94.9 0 172.1 77.199 172.1 172.1v1230.199c0 33.1-26.9 60-60 60s-60-26.9-60-60v-1230.199c0-28.699-23.4-52.1-52.1-52.1h-1085.6c-28.699 0-52.1 23.4-52.1 52.1v1382.199c0 33.1-26.9 60-60 60z"></path>
<path d="M1568 1875.9h-1170.199c-110.1 0-199.6-89.5-199.6-199.6s89.5-199.6 199.6-199.6h1170.199c33.1 0 60 26.9 60 60s-26.9 60-60 60h-1170.199c-43.9 0-79.6 35.699-79.6 79.6s35.699 79.6 79.6 79.6h1170.199c33.1 0 60 26.9 60 60s-26.9 60-60 60z"></path>
<path d="M1276.9 544h-727.6c-33.1 0-60-26.9-60-60s26.9-60 60-60h727.6c33.1 0 60 26.9 60 60s-26.9 60-60 60z"></path>
<path d="M1276.9 707.699h-727.6c-33.1 0-60-26.9-60-60s26.9-60 60-60h727.6c33.1 0 60 26.9 60 60s-26.9 60-60 60z"></path>
<path d="M1186 871.4h-545.801c-33.1 0-60-26.9-60-60s26.9-60 60-60h545.801c33.1 0 60 26.9 60 60s-26.9 60-60 60z"></path>
<path d="M1568 1738.5h-1157.801c-33.1 0-60-26.9-60-60s26.9-60 60-60h1157.801c33.1 0 60 26.9 60 60s-26.9 60-60 60z"></path>
</svg>
