<svg viewBox="0 0 40 29" xmlns="http://www.w3.org/2000/svg"><g fill="none" fill-rule="evenodd"><ellipse fill="#FF9B21" opacity=".688" cx="20" cy="21.873" rx="20" ry="7.127"/><path d="M17.073.024a.56.56 0 0 0-.17-.024v22.264l7.372 2.288a.569.569 0 0 0 .17.024V2.312L17.073.024z" fill="#02BED6" fill-rule="nonzero"/><path d="M16.763.016l-9.21 2.34a.584.584 0 0 0-.436.568v21.067c0 .18.081.35.221.461a.569.569 0 0 0 .494.107l9.054-2.301.016.005V0a.568.568 0 0 0-.14.016zM33.396.121a.566.566 0 0 0-.498-.101l-8.441 2.297-.012-.003v22.262c.05 0 .1-.005.148-.018l8.601-2.34c.25-.07.426-.301.426-.566V.585a.59.59 0 0 0-.224-.464z" fill="#87D2DC" fill-rule="nonzero"/><path d="M26.884 12.083l1.88-1.888a.575.575 0 0 0 0-.81.569.569 0 0 0-.808 0l-1.88 1.887-1.88-1.888a.569.569 0 0 0-.806 0 .575.575 0 0 0 0 .811l1.88 1.888-1.88 1.889a.575.575 0 0 0 .403.979.568.568 0 0 0 .404-.168l1.88-1.889 1.88 1.889a.568.568 0 0 0 .806 0 .575.575 0 0 0 0-.811l-1.88-1.889zM14.082 12.698h-2.31c-.32 0-.578-.23-.578-.512 0-.283.259-.512.578-.512h2.31c.32 0 .578.229.578.512 0 .282-.259.512-.578.512zM19.79 12.698h-2.31c-.32 0-.578-.23-.578-.512 0-.283.259-.512.578-.512h2.31c.32 0 .578.229.578.512 0 .282-.259.512-.578.512z" fill="#FFF" fill-rule="nonzero"/></g></svg>