<svg viewBox="0 0 35 40" xmlns="http://www.w3.org/2000/svg"><g fill-rule="nonzero" fill="none"><path d="M34.478 5.427L28.696 0H6.087L.304 5.427a.868.868 0 0 0 .566 1.53h33.043a.868.868 0 0 0 .565-1.53z" fill="#D1B43D"/><path fill="#BCA02A" d="M6.087 0h22.609v11.304H6.087z"/><path d="M33.913 5.217H.87a.87.87 0 0 0-.87.87v32.174C0 39.22.778 40 1.74 40h31.304c.96 0 1.739-.778 1.739-1.74V6.088a.87.87 0 0 0-.87-.87z" fill="#EFD358"/><path d="M17.391 24.348c-4.315 0-7.826-3.511-7.826-7.826v-2.609a.87.87 0 1 1 1.74 0v2.609a6.094 6.094 0 0 0 6.086 6.087 6.094 6.094 0 0 0 6.087-6.087v-2.609a.87.87 0 1 1 1.74 0v2.609c0 4.315-3.51 7.826-7.827 7.826z" fill="#FFF"/></g></svg>