<svg viewBox="0 0 40 40" xmlns="http://www.w3.org/2000/svg"><g fill-rule="nonzero" fill="none"><path d="M13.913 0H3.478A3.478 3.478 0 0 0 0 3.478V20.87a3.478 3.478 0 0 0 3.478 3.478h10.435a3.478 3.478 0 0 0 3.478-3.478V3.478A3.478 3.478 0 0 0 13.913 0zM36.522 15.652H26.087a3.478 3.478 0 0 0-3.478 3.478v17.392A3.478 3.478 0 0 0 26.087 40h10.435A3.478 3.478 0 0 0 40 36.522V19.13a3.478 3.478 0 0 0-3.478-3.478z" fill="#444"/><path d="M13.913 20H3.478a.87.87 0 0 1-.87-.87V3.478c0-.48.39-.87.87-.87h10.435c.48 0 .87.39.87.87V19.13c0 .48-.39.87-.87.87zM36.522 35.652H26.087a.87.87 0 0 1-.87-.87V19.13c0-.48.39-.87.87-.87h10.435c.48 0 .87.39.87.87v15.653c0 .48-.39.87-.87.87z" fill="#7A7A7A"/><path d="M35.397 7.211a.87.87 0 0 0-1.23 0l-1.993 1.994V5.217A4.353 4.353 0 0 0 27.826.87h-3.478a.87.87 0 0 0 0 1.739h3.478a2.612 2.612 0 0 1 2.609 2.608v3.988L28.44 7.211a.87.87 0 1 0-1.23 1.23l3.479 3.478a.867.867 0 0 0 1.23 0l3.477-3.478a.87.87 0 0 0 0-1.23zM4.603 32.789c.34.34.89.34 1.23 0l1.993-1.994v3.988a4.353 4.353 0 0 0 4.348 4.347h3.478a.87.87 0 0 0 0-1.739h-3.478a2.612 2.612 0 0 1-2.609-2.608v-3.988l1.994 1.994a.87.87 0 1 0 1.23-1.23L9.31 28.081a.867.867 0 0 0-1.23 0l-3.477 3.478a.87.87 0 0 0 0 1.23z" fill="#43A6DD"/></g></svg>