<svg xmlns="http://www.w3.org/2000/svg" width="127" height="105"><g fill="none" fill-rule="nonzero"><path fill="#87D2DC" d="M121.019 104.516H5.5A5.5 5.5 0 0 1 0 99.016V5.5A5.5 5.5 0 0 1 5.5 0H121.02a5.5 5.5 0 0 1 5.5 5.5v93.515a5.5 5.5 0 0 1-5.5 5.501z"/><path fill="#FFF" d="M63.26 66.01a2.742 2.742 0 0 1-1.945-.806L22.81 26.698a2.75 2.75 0 1 1 3.89-3.889l36.56 36.561 36.562-36.56a2.75 2.75 0 1 1 3.89 3.888L65.203 65.204a2.742 2.742 0 0 1-1.944.806zM24.754 82.513a2.75 2.75 0 0 1-1.945-4.695l11.002-11.002a2.75 2.75 0 1 1 3.89 3.89l-11.003 11a2.742 2.742 0 0 1-1.944.807zM101.766 82.513a2.742 2.742 0 0 1-1.945-.806L88.82 70.705a2.75 2.75 0 1 1 3.89-3.889l11.001 11.002a2.75 2.75 0 0 1-1.944 4.695z"/></g></svg>